<?xml version="1.0" standalone="no"?>
 <!DOCTYPE svg PUBLIC "-//W3C//DTD SVG 1.1//EN" 
 "http://www.w3.org/Graphics/SVG/1.1/DTD/svg11.dtd"> 
<svg xmlns="http://www.w3.org/2000/svg" version="1.1" 
    width="29.7002cm" height="21.0007cm" viewBox="0 0 116930 82680 ">
<title>SVG Picture created as ACONDICIONAMINETO DAQ-brd.svg date 2020/05/28 10:35:25 </title>
  <desc>Picture generated by PCBNEW </desc>
<g style="fill:#000000; fill-opacity:1;stroke:#000000; stroke-opacity:1;
stroke-linecap:round; stroke-linejoin:round; "
 transform="translate(0 0) scale(1 1)">
</g>
<g style="fill:#000000; fill-opacity:0.0; 
stroke:#000000; stroke-width:-0.000393701; stroke-opacity:1; 
stroke-linecap:round; stroke-linejoin:round;">
</g>
<g style="fill:#840084; fill-opacity:0.0; 
stroke:#840084; stroke-width:-0.000393701; stroke-opacity:1; 
stroke-linecap:round; stroke-linejoin:round;">
</g>
<g style="fill:#840084; fill-opacity:1.0; 
stroke:#840084; stroke-width:0; stroke-opacity:1; 
stroke-linecap:round; stroke-linejoin:round;">
<polyline style="fill-rule:evenodd;"
points="74305,39524
74387,39559
74462,39608
74525,39671
74574,39745
74608,39828
74626,39915
74626,40005
74608,40092
74574,40175
74525,40249
74462,40312
74387,40362
74305,40396
74217,40413
74128,40413
74041,40396
73958,40362
73884,40312
73821,40249
73771,40175
73737,40092
73720,40005
73720,39915
73737,39828
73771,39745
73821,39671
73884,39608
73958,39559
74041,39524
74128,39507
74217,39507
74305,39524
" /> 
<polyline style="fill-rule:evenodd;"
points="48888,37405
48928,37412
49039,37458
49139,37525
49224,37610
49291,37710
49334,37815
49337,37821
49360,37939
49360,38060
49356,38080
49337,38178
49291,38289
49224,38389
49139,38474
49039,38541
48928,38587
48888,38594
48810,38610
48689,38610
48611,38594
48571,38587
48460,38541
48360,38474
48275,38389
48208,38289
48162,38178
48143,38080
48139,38060
48139,37939
48162,37821
48165,37815
48208,37710
48275,37610
48360,37525
48460,37458
48571,37412
48611,37405
48689,37389
48810,37389
48888,37405
" /> 
<polyline style="fill-rule:evenodd;"
points="57847,37427
57908,37453
57963,37489
58010,37536
58046,37591
58072,37652
58085,37717
58085,37782
58072,37847
58046,37908
58010,37963
57963,38010
57908,38046
57847,38072
57782,38085
57717,38085
57652,38072
57591,38046
57536,38010
57489,37963
57453,37908
57427,37847
57414,37782
57414,37717
57427,37652
57453,37591
57489,37536
57536,37489
57591,37453
57652,37427
57717,37414
57782,37414
57847,37427
" /> 
<polyline style="fill-rule:evenodd;"
points="54815,37419
54815,37419
54815,37419
54878,37438
54878,37438
54878,37438
54937,37470
54988,37511
55029,37562
55061,37621
55061,37621
55061,37621
55080,37684
55080,37684
55086,37750
55080,37815
55080,37815
55080,37815
55070,37847
55061,37878
55029,37937
54988,37988
54937,38029
54878,38061
54878,38061
54878,38061
54815,38080
54815,38080
54815,38080
54766,38085
54733,38085
54684,38080
54684,38080
54684,38080
54621,38061
54621,38061
54621,38061
54562,38029
54511,37988
54470,37937
54438,37878
54429,37847
54419,37815
54419,37815
54419,37815
54413,37750
54419,37684
54419,37684
54438,37621
54438,37621
54438,37621
54470,37562
54511,37511
54562,37470
54621,37438
54621,37438
54621,37438
54684,37419
54684,37419
54684,37419
54733,37414
54766,37414
54815,37419
" /> 
<polyline style="fill-rule:evenodd;"
points="60072,36667
60143,36681
60233,36719
60313,36772
60313,36772
60382,36841
60382,36841
60436,36922
60473,37011
60492,37107
60492,37204
60473,37299
60436,37388
60393,37453
60382,37469
60313,37538
60313,37538
60233,37591
60143,37629
60072,37643
60048,37648
59951,37648
59927,37643
59856,37629
59766,37591
59686,37538
59686,37538
59617,37469
59606,37453
59563,37388
59526,37299
59507,37204
59507,37107
59526,37011
59563,36922
59617,36841
59617,36841
59686,36772
59686,36772
59766,36719
59856,36681
59927,36667
59951,36662
60048,36662
60072,36667
" /> 
<polyline style="fill-rule:evenodd;"
points="49360,36610
48139,36610
48139,35389
49360,35389
49360,36610
" /> 
<polyline style="fill-rule:evenodd;"
points="54347,35677
54408,35703
54463,35739
54510,35786
54546,35841
54572,35902
54585,35967
54585,36032
54572,36097
54546,36158
54510,36213
54463,36260
54408,36296
54347,36322
54282,36335
54217,36335
54152,36322
54091,36296
54036,36260
53989,36213
53953,36158
53927,36097
53914,36032
53914,35967
53927,35902
53953,35841
53989,35786
54036,35739
54091,35703
54152,35677
54217,35664
54282,35664
54347,35677
" /> 
<polyline style="fill-rule:evenodd;"
points="51315,35669
51315,35669
51315,35669
51378,35688
51378,35688
51378,35688
51437,35720
51488,35761
51529,35812
51561,35871
51561,35871
51561,35871
51580,35934
51580,35934
51586,36000
51580,36065
51580,36065
51580,36065
51570,36097
51561,36128
51529,36187
51488,36238
51437,36279
51378,36311
51378,36311
51378,36311
51315,36330
51315,36330
51315,36330
51266,36335
51233,36335
51184,36330
51184,36330
51184,36330
51121,36311
51121,36311
51121,36311
51062,36279
51011,36238
50970,36187
50938,36128
50929,36097
50919,36065
50919,36065
50919,36065
50913,36000
50919,35934
50919,35934
50938,35871
50938,35871
50938,35871
50970,35812
51011,35761
51062,35720
51121,35688
51121,35688
51121,35688
51184,35669
51184,35669
51184,35669
51233,35664
51266,35664
51315,35669
" /> 
<polyline style="fill-rule:evenodd;"
points="62565,34919
62565,34919
62565,34919
62628,34938
62628,34938
62628,34938
62687,34970
62738,35011
62779,35062
62811,35121
62830,35184
62836,35250
62830,35315
62811,35378
62779,35437
62738,35488
62687,35529
62628,35561
62628,35561
62628,35561
62565,35580
62565,35580
62565,35580
62516,35585
62483,35585
62434,35580
62434,35580
62434,35580
62371,35561
62371,35561
62371,35561
62312,35529
62261,35488
62220,35437
62188,35378
62169,35315
62163,35250
62169,35184
62188,35121
62220,35062
62261,35011
62312,34970
62371,34938
62371,34938
62371,34938
62434,34919
62434,34919
62434,34919
62483,34914
62516,34914
62565,34919
" /> 
<polyline style="fill-rule:evenodd;"
points="48888,32655
48928,32662
49039,32708
49139,32775
49224,32860
49291,32960
49337,33071
49337,33071
49360,33189
49360,33310
49346,33378
49337,33428
49291,33539
49224,33639
49139,33724
49039,33791
48928,33837
48888,33844
48810,33860
48689,33860
48611,33844
48571,33837
48460,33791
48360,33724
48275,33639
48208,33539
48162,33428
48153,33378
48139,33310
48139,33189
48162,33071
48162,33071
48208,32960
48275,32860
48360,32775
48460,32708
48571,32662
48611,32655
48689,32639
48810,32639
48888,32655
" /> 
<polyline style="fill-rule:evenodd;"
points="66473,32919
66473,32919
66473,32919
66536,32938
66536,32938
66536,32938
66594,32970
66645,33011
66687,33062
66718,33121
66737,33184
66744,33250
66737,33315
66718,33378
66687,33437
66645,33488
66594,33529
66536,33561
66536,33561
66536,33561
66473,33580
66473,33580
66473,33580
66423,33585
66076,33585
66026,33580
66026,33580
66026,33580
65963,33561
65963,33561
65963,33561
65905,33529
65854,33488
65812,33437
65781,33378
65762,33315
65755,33250
65762,33184
65781,33121
65812,33062
65854,33011
65905,32970
65963,32938
65963,32938
65963,32938
66026,32919
66026,32919
66026,32919
66076,32914
66423,32914
66473,32919
" /> 
<polyline style="fill-rule:evenodd;"
points="69473,32919
69473,32919
69473,32919
69536,32938
69536,32938
69536,32938
69594,32970
69645,33011
69687,33062
69718,33121
69737,33184
69744,33250
69737,33315
69718,33378
69687,33437
69645,33488
69594,33529
69536,33561
69536,33561
69536,33561
69473,33580
69473,33580
69473,33580
69423,33585
69076,33585
69026,33580
69026,33580
69026,33580
68963,33561
68963,33561
68963,33561
68905,33529
68854,33488
68812,33437
68781,33378
68762,33315
68755,33250
68762,33184
68781,33121
68812,33062
68854,33011
68905,32970
68963,32938
68963,32938
68963,32938
69026,32919
69026,32919
69026,32919
69076,32914
69423,32914
69473,32919
" /> 
<polyline style="fill-rule:evenodd;"
points="73360,33110
72139,33110
72139,31889
73360,31889
73360,33110
" /> 
<polyline style="fill-rule:evenodd;"
points="66473,31919
66473,31919
66473,31919
66536,31938
66536,31938
66536,31938
66594,31970
66645,32011
66687,32062
66718,32121
66718,32121
66718,32121
66737,32184
66737,32184
66744,32250
66737,32315
66737,32315
66737,32315
66727,32347
66718,32378
66687,32437
66645,32488
66594,32529
66536,32561
66536,32561
66536,32561
66473,32580
66473,32580
66473,32580
66423,32585
66076,32585
66026,32580
66026,32580
66026,32580
65963,32561
65963,32561
65963,32561
65905,32529
65854,32488
65812,32437
65781,32378
65772,32347
65762,32315
65762,32315
65762,32315
65755,32250
65762,32184
65762,32184
65781,32121
65781,32121
65781,32121
65812,32062
65854,32011
65905,31970
65963,31938
65963,31938
65963,31938
66026,31919
66026,31919
66026,31919
66076,31914
66423,31914
66473,31919
" /> 
<polyline style="fill-rule:evenodd;"
points="64315,31919
64315,31919
64315,31919
64378,31938
64378,31938
64378,31938
64437,31970
64488,32011
64529,32062
64561,32121
64561,32121
64561,32121
64580,32184
64580,32184
64586,32250
64580,32315
64580,32315
64580,32315
64570,32347
64561,32378
64529,32437
64488,32488
64437,32529
64378,32561
64378,32561
64378,32561
64315,32580
64315,32580
64315,32580
64266,32585
64233,32585
64184,32580
64184,32580
64184,32580
64121,32561
64121,32561
64121,32561
64062,32529
64011,32488
63970,32437
63938,32378
63929,32347
63919,32315
63919,32315
63919,32315
63913,32250
63919,32184
63919,32184
63938,32121
63938,32121
63938,32121
63970,32062
64011,32011
64062,31970
64121,31938
64121,31938
64121,31938
64184,31919
64184,31919
64184,31919
64233,31914
64266,31914
64315,31919
" /> 
<polyline style="fill-rule:evenodd;"
points="69473,31919
69473,31919
69473,31919
69536,31938
69536,31938
69536,31938
69594,31970
69645,32011
69687,32062
69718,32121
69718,32121
69718,32121
69737,32184
69737,32184
69744,32250
69737,32315
69737,32315
69737,32315
69727,32347
69718,32378
69687,32437
69645,32488
69594,32529
69536,32561
69536,32561
69536,32561
69473,32580
69473,32580
69473,32580
69423,32585
69076,32585
69026,32580
69026,32580
69026,32580
68963,32561
68963,32561
68963,32561
68905,32529
68854,32488
68812,32437
68781,32378
68772,32347
68762,32315
68762,32315
68762,32315
68755,32250
68762,32184
68762,32184
68781,32121
68781,32121
68781,32121
68812,32062
68854,32011
68905,31970
68963,31938
68963,31938
68963,31938
69026,31919
69026,31919
69026,31919
69076,31914
69423,31914
69473,31919
" /> 
<polyline style="fill-rule:evenodd;"
points="62597,31927
62658,31953
62713,31989
62760,32036
62796,32091
62822,32152
62835,32217
62835,32282
62822,32347
62796,32408
62760,32463
62713,32510
62658,32546
62597,32572
62532,32585
62467,32585
62402,32572
62341,32546
62286,32510
62239,32463
62203,32408
62177,32347
62164,32282
62164,32217
62177,32152
62203,32091
62239,32036
62286,31989
62341,31953
62402,31927
62467,31914
62532,31914
62597,31927
" /> 
<polyline style="fill-rule:evenodd;"
points="49360,31860
48139,31860
48139,30639
49360,30639
49360,31860
" /> 
<polyline style="fill-rule:evenodd;"
points="60072,30762
60143,30776
60233,30813
60313,30867
60313,30867
60382,30936
60382,30936
60436,31016
60473,31106
60492,31201
60492,31298
60473,31393
60436,31483
60393,31546
60382,31563
60313,31632
60313,31632
60233,31686
60143,31723
60072,31737
60048,31742
59951,31742
59927,31737
59856,31723
59766,31686
59686,31632
59686,31632
59617,31563
59606,31546
59563,31483
59526,31393
59507,31298
59507,31201
59526,31106
59563,31016
59617,30936
59617,30936
59686,30867
59686,30867
59766,30813
59856,30776
59927,30762
59951,30757
60048,30757
60072,30762
" /> 
<polyline style="fill-rule:evenodd;"
points="66473,30919
66473,30919
66473,30919
66536,30938
66536,30938
66536,30938
66594,30970
66645,31011
66687,31062
66718,31121
66718,31121
66718,31121
66737,31184
66737,31184
66744,31250
66737,31315
66737,31315
66737,31315
66727,31347
66718,31378
66687,31437
66645,31488
66594,31529
66536,31561
66536,31561
66536,31561
66473,31580
66473,31580
66473,31580
66423,31585
66076,31585
66026,31580
66026,31580
66026,31580
65963,31561
65963,31561
65963,31561
65905,31529
65854,31488
65812,31437
65781,31378
65772,31347
65762,31315
65762,31315
65762,31315
65755,31250
65762,31184
65762,31184
65781,31121
65781,31121
65781,31121
65812,31062
65854,31011
65905,30970
65963,30938
65963,30938
65963,30938
66026,30919
66026,30919
66026,30919
66076,30914
66423,30914
66473,30919
" /> 
<polyline style="fill-rule:evenodd;"
points="69473,30919
69473,30919
69473,30919
69536,30938
69536,30938
69536,30938
69594,30970
69645,31011
69687,31062
69718,31121
69718,31121
69718,31121
69737,31184
69737,31184
69744,31250
69737,31315
69737,31315
69737,31315
69727,31347
69718,31378
69687,31437
69645,31488
69594,31529
69536,31561
69536,31561
69536,31561
69473,31580
69473,31580
69473,31580
69423,31585
69076,31585
69026,31580
69026,31580
69026,31580
68963,31561
68963,31561
68963,31561
68905,31529
68854,31488
68812,31437
68781,31378
68772,31347
68762,31315
68762,31315
68762,31315
68755,31250
68762,31184
68762,31184
68781,31121
68781,31121
68781,31121
68812,31062
68854,31011
68905,30970
68963,30938
68963,30938
68963,30938
69026,30919
69026,30919
69026,30919
69076,30914
69423,30914
69473,30919
" /> 
<polyline style="fill-rule:evenodd;"
points="56847,30927
56908,30953
56963,30989
57010,31036
57046,31091
57072,31152
57085,31217
57085,31282
57072,31347
57046,31408
57010,31463
56963,31510
56908,31546
56847,31572
56782,31585
56717,31585
56652,31572
56591,31546
56536,31510
56489,31463
56453,31408
56427,31347
56414,31282
56414,31217
56427,31152
56453,31091
56489,31036
56536,30989
56591,30953
56652,30927
56717,30914
56782,30914
56847,30927
" /> 
<polyline style="fill-rule:evenodd;"
points="53815,30919
53815,30919
53815,30919
53878,30938
53878,30938
53878,30938
53937,30970
53988,31011
54029,31062
54061,31121
54061,31121
54061,31121
54080,31184
54080,31184
54086,31250
54080,31315
54080,31315
54080,31315
54070,31347
54061,31378
54029,31437
53988,31488
53937,31529
53878,31561
53878,31561
53878,31561
53815,31580
53815,31580
53815,31580
53766,31585
53733,31585
53684,31580
53684,31580
53684,31580
53621,31561
53621,31561
53621,31561
53562,31529
53511,31488
53470,31437
53438,31378
53429,31347
53419,31315
53419,31315
53419,31315
53413,31250
53419,31184
53419,31184
53438,31121
53438,31121
53438,31121
53470,31062
53511,31011
53562,30970
53621,30938
53621,30938
53621,30938
53684,30919
53684,30919
53684,30919
53733,30914
53766,30914
53815,30919
" /> 
<polyline style="fill-rule:evenodd;"
points="72888,29905
72928,29912
73039,29958
73139,30025
73224,30110
73291,30210
73334,30315
73337,30321
73360,30439
73360,30560
73356,30580
73337,30678
73291,30789
73224,30889
73139,30974
73039,31041
72928,31087
72888,31094
72810,31110
72689,31110
72611,31094
72571,31087
72460,31041
72360,30974
72275,30889
72208,30789
72162,30678
72143,30580
72139,30560
72139,30439
72162,30321
72165,30315
72208,30210
72275,30110
72360,30025
72460,29958
72571,29912
72611,29905
72689,29889
72810,29889
72888,29905
" /> 
<polyline style="fill-rule:evenodd;"
points="66742,30585
65757,30585
65757,29914
66742,29914
66742,30585
" /> 
<polyline style="fill-rule:evenodd;"
points="69473,29919
69473,29919
69473,29919
69536,29938
69536,29938
69536,29938
69594,29970
69645,30011
69687,30062
69718,30121
69737,30184
69744,30250
69737,30315
69718,30378
69687,30437
69645,30488
69594,30529
69536,30561
69536,30561
69536,30561
69473,30580
69473,30580
69473,30580
69423,30585
69076,30585
69026,30580
69026,30580
69026,30580
68963,30561
68963,30561
68963,30561
68905,30529
68854,30488
68812,30437
68781,30378
68762,30315
68755,30250
68762,30184
68781,30121
68812,30062
68854,30011
68905,29970
68963,29938
68963,29938
68963,29938
69026,29919
69026,29919
69026,29919
69076,29914
69423,29914
69473,29919
" /> 
<polyline style="fill-rule:evenodd;"
points="64347,28927
64408,28953
64463,28989
64510,29036
64546,29091
64572,29152
64585,29217
64585,29282
64572,29347
64546,29408
64510,29463
64463,29510
64408,29546
64347,29572
64282,29585
64217,29585
64152,29572
64091,29546
64036,29510
63989,29463
63953,29408
63927,29347
63914,29282
63914,29217
63927,29152
63953,29091
63989,29036
64036,28989
64091,28953
64152,28927
64217,28914
64282,28914
64347,28927
" /> 
<polyline style="fill-rule:evenodd;"
points="48888,27905
48928,27912
49039,27958
49139,28025
49224,28110
49291,28210
49337,28321
49360,28439
49360,28560
49337,28678
49291,28789
49224,28889
49139,28974
49039,29041
48928,29087
48888,29094
48810,29110
48689,29110
48611,29094
48571,29087
48460,29041
48360,28974
48275,28889
48208,28789
48162,28678
48139,28560
48139,28439
48162,28321
48208,28210
48275,28110
48360,28025
48460,27958
48571,27912
48611,27905
48689,27889
48810,27889
48888,27905
" /> 
<polyline style="fill-rule:evenodd;"
points="49360,27110
48139,27110
48139,25889
49360,25889
49360,27110
" /> 
<polyline style="fill-rule:evenodd;"
points="47021,22831
47104,22866
47178,22915
47241,22978
47291,23053
47325,23135
47342,23223
47342,23312
47325,23399
47291,23482
47241,23556
47178,23619
47104,23669
47021,23703
46934,23720
46845,23720
46757,23703
46675,23669
46600,23619
46537,23556
46488,23482
46454,23399
46436,23312
46436,23223
46454,23135
46488,23053
46537,22978
46600,22915
46675,22866
46757,22831
46845,22814
46934,22814
47021,22831
" /> 
</g>
<g style="fill:#000000; fill-opacity:1.0; 
stroke:#000000; stroke-width:0; stroke-opacity:1; 
stroke-linecap:round; stroke-linejoin:round;">
</g>
<g style="fill:#008484; fill-opacity:1.0; 
stroke:#008484; stroke-width:0; stroke-opacity:1; 
stroke-linecap:round; stroke-linejoin:round;">
</g>
<g style="fill:#008484; fill-opacity:0.0; 
stroke:#008484; stroke-width:47.2441; stroke-opacity:1; 
stroke-linecap:round; stroke-linejoin:round;">
<path d="M67356.3 29726.4 A393.701 393.701 0.0 0 0 68143.7 29726.4 " />
<path d="M67356 29726
L66864 29726
" />
<path d="M66864 29726
L66864 33773
" />
<path d="M66864 33773
L68635 33773
" />
<path d="M68635 33773
L68635 29726
" />
<path d="M68635 29726
L68143 29726
" />
<path d="M65683 29702
L65683 33797
" />
<path d="M65683 33797
L69816 33797
" />
<path d="M69816 33797
L69816 29702
" />
<path d="M69816 29702
L65683 29702
" />
<path d="M56537 31659
L56537 31789
" />
<path d="M56537 31789
L53962 31789
" />
<path d="M53962 31789
L53962 31659
" />
<path d="M56537 30840
L56537 30710
" />
<path d="M56537 30710
L53962 30710
" />
<path d="M53962 30710
L53962 30840
" />
<path d="M61031 30612
L61031 37793
" />
<path d="M58968 30612
L58968 37793
" />
<path d="M61031 30612
L58968 30612
" />
<path d="M61031 37793
L58968 37793
" />
<path d="M47750 29500
L47750 25500
" />
<path d="M47250 29500
L50250 29500
" />
<path d="M50250 29500
L50250 25500
" />
<path d="M50250 25500
L47250 25500
" />
<path d="M47250 25500
L47250 29500
" />
<path d="M47250 30250
L47250 34250
" />
<path d="M50250 30250
L47250 30250
" />
<path d="M50250 34250
L50250 30250
" />
<path d="M47250 34250
L50250 34250
" />
<path d="M47750 34250
L47750 30250
" />
<path d="M47750 39000
L47750 35000
" />
<path d="M47250 39000
L50250 39000
" />
<path d="M50250 39000
L50250 35000
" />
<path d="M50250 35000
L47250 35000
" />
<path d="M47250 35000
L47250 39000
" />
<path d="M74250 33500
L74250 29500
" />
<path d="M71250 33500
L74250 33500
" />
<path d="M71250 29500
L71250 33500
" />
<path d="M74250 29500
L71250 29500
" />
<path d="M73750 29500
L73750 33500
" />
<path d="M54037 36409
L54037 36539
" />
<path d="M54037 36539
L51462 36539
" />
<path d="M51462 36539
L51462 36409
" />
<path d="M54037 35590
L54037 35460
" />
<path d="M54037 35460
L51462 35460
" />
<path d="M51462 35460
L51462 35590
" />
<path d="M54962 37210
L54962 37340
" />
<path d="M57537 37210
L54962 37210
" />
<path d="M57537 37340
L57537 37210
" />
<path d="M54962 38289
L54962 38159
" />
<path d="M57537 38289
L54962 38289
" />
<path d="M57537 38159
L57537 38289
" />
<path d="M61960 35037
L62090 35037
" />
<path d="M61960 32462
L61960 35037
" />
<path d="M62090 32462
L61960 32462
" />
<path d="M63039 35037
L62909 35037
" />
<path d="M63039 32462
L63039 35037
" />
<path d="M62909 32462
L63039 32462
" />
<path d="M64659 29462
L64789 29462
" />
<path d="M64789 29462
L64789 32037
" />
<path d="M64789 32037
L64659 32037
" />
<path d="M63840 29462
L63710 29462
" />
<path d="M63710 29462
L63710 32037
" />
<path d="M63710 32037
L63840 32037
" />
</g>
<g style="fill:#008484; fill-opacity:0.0; 
stroke:#008484; stroke-width:59.0551; stroke-opacity:1; 
stroke-linecap:round; stroke-linejoin:round;">
<path d="M67450 29117
L67450 29435
L67468 29473
L67487 29492
L67525 29510
L67600 29510
L67637 29492
L67656 29473
L67675 29435
L67675 29117
" />
<path d="M68068 29510
L67843 29510
" />
<path d="M67956 29510
L67956 29117
L67918 29173
L67881 29210
L67843 29229
" />
<path d="M55184 32361
L55053 32173
" />
<path d="M54959 32361
L54959 31967
L55109 31967
L55146 31986
L55165 32004
L55184 32042
L55184 32098
L55165 32136
L55146 32154
L55109 32173
L54959 32173
" />
<path d="M55521 32098
L55521 32361
" />
<path d="M55428 31948
L55334 32229
L55578 32229
" />
<path d="M61616 34268
L61635 34287
L61654 34343
L61654 34380
L61635 34437
L61598 34474
L61560 34493
L61485 34512
L61429 34512
L61354 34493
L61317 34474
L61279 34437
L61260 34380
L61260 34343
L61279 34287
L61298 34268
" />
<path d="M61654 33893
L61654 34118
" />
<path d="M61654 34005
L61260 34005
L61317 34043
L61354 34080
L61373 34118
" />
<path d="M50534 27631
L50815 27631
L50871 27649
L50909 27687
L50928 27743
L50928 27781
" />
<path d="M50928 27237
L50928 27462
" />
<path d="M50928 27350
L50534 27350
L50590 27387
L50628 27425
L50646 27462
" />
<path d="M50534 32381
L50815 32381
L50871 32399
L50909 32437
L50928 32493
L50928 32531
" />
<path d="M50571 32212
L50553 32193
L50534 32156
L50534 32062
L50553 32025
L50571 32006
L50609 31987
L50646 31987
L50703 32006
L50928 32231
L50928 31987
" />
<path d="M50534 37131
L50815 37131
L50871 37149
L50909 37187
L50928 37243
L50928 37281
" />
<path d="M50534 36981
L50534 36737
L50684 36868
L50684 36812
L50703 36775
L50721 36756
L50759 36737
L50853 36737
L50890 36756
L50909 36775
L50928 36812
L50928 36925
L50909 36962
L50890 36981
" />
<path d="M70534 31631
L70815 31631
L70871 31649
L70909 31687
L70928 31743
L70928 31781
" />
<path d="M70665 31275
L70928 31275
" />
<path d="M70515 31368
L70796 31462
L70796 31218
" />
<path d="M52684 37111
L52553 36923
" />
<path d="M52459 37111
L52459 36717
L52609 36717
L52646 36736
L52665 36754
L52684 36792
L52684 36848
L52665 36886
L52646 36904
L52609 36923
L52459 36923
" />
<path d="M53059 37111
L52834 37111
" />
<path d="M52946 37111
L52946 36717
L52909 36773
L52871 36811
L52834 36829
" />
<path d="M56184 38861
L56053 38673
" />
<path d="M55959 38861
L55959 38467
L56109 38467
L56146 38486
L56165 38504
L56184 38542
L56184 38598
L56165 38636
L56146 38654
L56109 38673
L55959 38673
" />
<path d="M56334 38504
L56353 38486
L56390 38467
L56484 38467
L56521 38486
L56540 38504
L56559 38542
L56559 38579
L56540 38636
L56315 38861
L56559 38861
" />
<path d="M63611 33815
L63423 33946
" />
<path d="M63611 34040
L63217 34040
L63217 33890
L63236 33853
L63254 33834
L63292 33815
L63348 33815
L63386 33834
L63404 33853
L63423 33890
L63423 34040
" />
<path d="M63217 33684
L63217 33440
L63367 33571
L63367 33515
L63386 33478
L63404 33459
L63442 33440
L63536 33440
L63573 33459
L63592 33478
L63611 33515
L63611 33628
L63592 33665
L63573 33684
" />
<path d="M65361 30815
L65173 30946
" />
<path d="M65361 31040
L64967 31040
L64967 30890
L64986 30853
L65004 30834
L65042 30815
L65098 30815
L65136 30834
L65154 30853
L65173 30890
L65173 31040
" />
<path d="M64967 30459
L64967 30646
L65154 30665
L65136 30646
L65117 30609
L65117 30515
L65136 30478
L65154 30459
L65192 30440
L65286 30440
L65323 30459
L65342 30478
L65361 30515
L65361 30609
L65342 30646
L65323 30665
" />
</g>
<g style="fill:#000000; fill-opacity:0.0; 
stroke:#000000; stroke-width:59.0551; stroke-opacity:1; 
stroke-linecap:round; stroke-linejoin:round;">
</g>
<g style="fill:#C2C2C2; fill-opacity:0.0; 
stroke:#C2C2C2; stroke-width:59.0551; stroke-opacity:1; 
stroke-linecap:round; stroke-linejoin:round;">
</g>
<g style="fill:#C2C2C2; fill-opacity:0.0; 
stroke:#C2C2C2; stroke-width:19.685; stroke-opacity:1; 
stroke-linecap:round; stroke-linejoin:round;">
<path d="M65639 29620
L65639 33872
" />
<path d="M65639 33872
L69852 33872
" />
<path d="M69852 33872
L69852 29620
" />
<path d="M69852 29620
L65639 29620
" />
<path d="M57163 31840
L57163 30659
" />
<path d="M57163 30659
L53336 30659
" />
<path d="M53336 30659
L53336 31840
" />
<path d="M53336 31840
L57163 31840
" />
<path d="M61082 30561
L58917 30561
" />
<path d="M58917 30561
L58917 37844
" />
<path d="M58917 37844
L61082 37844
" />
<path d="M61082 37844
L61082 30561
" />
<path d="M50324 25433
L50324 29566
" />
<path d="M50324 25433
L47175 25433
" />
<path d="M47175 29566
L50324 29566
" />
<path d="M47175 29566
L47175 25433
" />
<path d="M47175 34316
L47175 30183
" />
<path d="M47175 34316
L50324 34316
" />
<path d="M50324 30183
L47175 30183
" />
<path d="M50324 30183
L50324 34316
" />
<path d="M50324 34933
L50324 39066
" />
<path d="M50324 34933
L47175 34933
" />
<path d="M47175 39066
L50324 39066
" />
<path d="M47175 39066
L47175 34933
" />
<path d="M74324 29433
L74324 33566
" />
<path d="M74324 29433
L71175 29433
" />
<path d="M71175 33566
L74324 33566
" />
<path d="M71175 33566
L71175 29433
" />
<path d="M54663 36590
L54663 35409
" />
<path d="M54663 35409
L50836 35409
" />
<path d="M50836 35409
L50836 36590
" />
<path d="M50836 36590
L54663 36590
" />
<path d="M54336 38340
L58163 38340
" />
<path d="M54336 37159
L54336 38340
" />
<path d="M58163 37159
L54336 37159
" />
<path d="M58163 38340
L58163 37159
" />
<path d="M63090 35663
L63090 31836
" />
<path d="M61909 35663
L63090 35663
" />
<path d="M61909 31836
L61909 35663
" />
<path d="M63090 31836
L61909 31836
" />
<path d="M64840 28836
L63659 28836
" />
<path d="M63659 28836
L63659 32663
" />
<path d="M63659 32663
L64840 32663
" />
<path d="M64840 32663
L64840 28836
" />
<circle cx="74173.2" cy="39960.6" r="964.567" /> 
<circle cx="46889.8" cy="23267.7" r="964.567" /> 
</g>
<g style="fill:#000000; fill-opacity:0.0; 
stroke:#000000; stroke-width:19.685; stroke-opacity:1; 
stroke-linecap:round; stroke-linejoin:round;">
</g>
<g style="fill:#848484; fill-opacity:0.0; 
stroke:#848484; stroke-width:19.685; stroke-opacity:1; 
stroke-linecap:round; stroke-linejoin:round;">
</g>
<g style="fill:#848484; fill-opacity:0.0; 
stroke:#848484; stroke-width:39.3701; stroke-opacity:1; 
stroke-linecap:round; stroke-linejoin:round;">
<path d="M66893 29750
L69000 29750
" />
<path d="M69000 29750
L69000 33750
" />
<path d="M69000 33750
L66500 33750
" />
<path d="M66500 33750
L66500 30143
" />
<path d="M66500 30143
L66893 29750
" />
<path d="M65750 29726
L65750 33773
" />
<path d="M65750 33773
L69750 33773
" />
<path d="M69750 33773
L69750 29726
" />
<path d="M69750 29726
L65750 29726
" />
<path d="M56490 31742
L56490 30757
" />
<path d="M56490 30757
L54009 30757
" />
<path d="M54009 30757
L54009 31742
" />
<path d="M54009 31742
L56490 31742
" />
<path d="M56750 31250
L56490 31250
" />
<path d="M53750 31250
L54009 31250
" />
<path d="M60984 30659
L59015 30659
" />
<path d="M59015 30659
L59015 37746
" />
<path d="M59015 37746
L60984 37746
" />
<path d="M60984 37746
L60984 30659
" />
<path d="M47746 25551
L47746 29448
" />
<path d="M50226 25531
L47273 25531
" />
<path d="M47273 25531
L47273 29468
" />
<path d="M47273 29468
L50226 29468
" />
<path d="M50226 29468
L50226 25531
" />
<path d="M50226 34218
L50226 30281
" />
<path d="M47273 34218
L50226 34218
" />
<path d="M47273 30281
L47273 34218
" />
<path d="M50226 30281
L47273 30281
" />
<path d="M47746 30301
L47746 34198
" />
<path d="M47746 35051
L47746 38948
" />
<path d="M50226 35031
L47273 35031
" />
<path d="M47273 35031
L47273 38968
" />
<path d="M47273 38968
L50226 38968
" />
<path d="M50226 38968
L50226 35031
" />
<path d="M71273 29531
L71273 33468
" />
<path d="M74226 29531
L71273 29531
" />
<path d="M74226 33468
L74226 29531
" />
<path d="M71273 33468
L74226 33468
" />
<path d="M73753 33448
L73753 29551
" />
<path d="M53990 36492
L53990 35507
" />
<path d="M53990 35507
L51509 35507
" />
<path d="M51509 35507
L51509 36492
" />
<path d="M51509 36492
L53990 36492
" />
<path d="M54250 36000
L53990 36000
" />
<path d="M51250 36000
L51509 36000
" />
<path d="M54750 37750
L55009 37750
" />
<path d="M57750 37750
L57490 37750
" />
<path d="M55009 38242
L57490 38242
" />
<path d="M55009 37257
L55009 38242
" />
<path d="M57490 37257
L55009 37257
" />
<path d="M57490 38242
L57490 37257
" />
<path d="M62500 35250
L62500 34990
" />
<path d="M62500 32250
L62500 32509
" />
<path d="M62992 34990
L62992 32509
" />
<path d="M62007 34990
L62992 34990
" />
<path d="M62007 32509
L62007 34990
" />
<path d="M62992 32509
L62007 32509
" />
<path d="M64742 29509
L63757 29509
" />
<path d="M63757 29509
L63757 31990
" />
<path d="M63757 31990
L64742 31990
" />
<path d="M64742 31990
L64742 29509
" />
<path d="M64250 29250
L64250 29509
" />
<path d="M64250 32250
L64250 31990
" />
</g>
<g style="fill:#848484; fill-opacity:0.0; 
stroke:#848484; stroke-width:59.0551; stroke-opacity:1; 
stroke-linecap:round; stroke-linejoin:round;">
<path d="M67084 34345
L66896 34345
L66896 33951
" />
<path d="M67215 34345
L67215 33951
L67346 34232
L67478 33951
L67478 34345
" />
<path d="M67628 33951
L67871 33951
L67740 34101
L67796 34101
L67834 34120
L67853 34139
L67871 34176
L67871 34270
L67853 34307
L67834 34326
L67796 34345
L67684 34345
L67646 34326
L67628 34307
" />
<path d="M68228 33951
L68040 33951
L68021 34139
L68040 34120
L68078 34101
L68171 34101
L68209 34120
L68228 34139
L68246 34176
L68246 34270
L68228 34307
L68209 34326
L68171 34345
L68078 34345
L68040 34326
L68021 34307
" />
<path d="M68471 34120
L68434 34101
L68415 34082
L68396 34045
L68396 34026
L68415 33989
L68434 33970
L68471 33951
L68546 33951
L68584 33970
L68603 33989
L68621 34026
L68621 34045
L68603 34082
L68584 34101
L68546 34120
L68471 34120
L68434 34139
L68415 34157
L68396 34195
L68396 34270
L68415 34307
L68434 34326
L68471 34345
L68546 34345
L68584 34326
L68603 34307
L68621 34270
L68621 34195
L68603 34157
L68584 34139
L68546 34120
" />
<path d="M67450 31534
L67450 31853
L67468 31890
L67487 31909
L67525 31928
L67600 31928
L67637 31909
L67656 31890
L67675 31853
L67675 31534
" />
<path d="M68068 31928
L67843 31928
" />
<path d="M67956 31928
L67956 31534
L67918 31590
L67881 31628
L67843 31646
" />
<path d="M54903 30101
L54715 30101
L54696 30288
L54715 30270
L54753 30251
L54846 30251
L54884 30270
L54903 30288
L54921 30326
L54921 30420
L54903 30457
L54884 30476
L54846 30495
L54753 30495
L54715 30476
L54696 30457
" />
<path d="M55090 30457
L55109 30476
L55090 30495
L55071 30476
L55090 30457
L55090 30495
" />
<path d="M55484 30495
L55259 30495
" />
<path d="M55371 30495
L55371 30101
L55334 30157
L55296 30195
L55259 30213
" />
<path d="M55653 30495
L55653 30101
" />
<path d="M55690 30345
L55803 30495
" />
<path d="M55803 30232
L55653 30382
" />
<path d="M55184 31428
L55053 31240
" />
<path d="M54959 31428
L54959 31034
L55109 31034
L55146 31053
L55165 31071
L55184 31109
L55184 31165
L55165 31203
L55146 31221
L55109 31240
L54959 31240
" />
<path d="M55521 31165
L55521 31428
" />
<path d="M55428 31015
L55334 31296
L55578 31296
" />
<path d="M58701 34437
L58701 34662
" />
<path d="M58701 34549
L58308 34549
L58364 34587
L58401 34624
L58420 34662
" />
<path d="M58439 34099
L58701 34099
" />
<path d="M58439 34268
L58645 34268
L58682 34249
L58701 34212
L58701 34155
L58682 34118
L58664 34099
" />
<path d="M58495 33780
L58495 33912
" />
<path d="M58701 33912
L58308 33912
L58308 33724
" />
<path d="M60140 34268
L60159 34287
L60178 34343
L60178 34380
L60159 34437
L60121 34474
L60084 34493
L60009 34512
L59953 34512
L59878 34493
L59840 34474
L59803 34437
L59784 34380
L59784 34343
L59803 34287
L59821 34268
" />
<path d="M60178 33893
L60178 34118
" />
<path d="M60178 34005
L59784 34005
L59840 34043
L59878 34080
L59896 34118
" />
<path d="M46025 31077
L46044 31021
L46044 30928
L46025 30890
L46006 30871
L45969 30853
L45931 30853
L45894 30871
L45875 30890
L45856 30928
L45838 31002
L45819 31040
L45800 31059
L45763 31077
L45725 31077
L45688 31059
L45669 31040
L45650 31002
L45650 30909
L45669 30853
" />
<path d="M46025 30515
L46044 30553
L46044 30628
L46025 30665
L46006 30684
L45969 30703
L45856 30703
L45819 30684
L45800 30665
L45781 30628
L45781 30553
L45800 30515
" />
<path d="M46044 30346
L45781 30346
" />
<path d="M45856 30346
L45819 30328
L45800 30309
L45781 30271
L45781 30234
" />
<path d="M46025 29953
L46044 29990
L46044 30065
L46025 30103
L45988 30121
L45838 30121
L45800 30103
L45781 30065
L45781 29990
L45800 29953
L45838 29934
L45875 29934
L45913 30121
" />
<path d="M45781 29803
L46044 29728
L45856 29653
L46044 29578
L45781 29503
" />
<path d="M46081 29446
L46081 29146
" />
<path d="M45650 29109
L45650 28884
" />
<path d="M46044 28997
L45650 28997
" />
<path d="M46025 28603
L46044 28640
L46044 28715
L46025 28753
L45988 28772
L45838 28772
L45800 28753
L45781 28715
L45781 28640
L45800 28603
L45838 28584
L45875 28584
L45913 28772
" />
<path d="M46044 28415
L45781 28415
" />
<path d="M45856 28415
L45819 28397
L45800 28378
L45781 28340
L45781 28303
" />
<path d="M46044 28172
L45781 28172
" />
<path d="M45819 28172
L45800 28153
L45781 28115
L45781 28059
L45800 28022
L45838 28003
L46044 28003
" />
<path d="M45838 28003
L45800 27984
L45781 27947
L45781 27890
L45800 27853
L45838 27834
L46044 27834
" />
<path d="M46044 27647
L45781 27647
" />
<path d="M45650 27647
L45669 27665
L45688 27647
L45669 27628
L45650 27647
L45688 27647
" />
<path d="M45781 27459
L46044 27459
" />
<path d="M45819 27459
L45800 27440
L45781 27403
L45781 27347
L45800 27309
L45838 27290
L46044 27290
" />
<path d="M46044 26934
L45838 26934
L45800 26953
L45781 26991
L45781 27065
L45800 27103
" />
<path d="M46025 26934
L46044 26972
L46044 27065
L46025 27103
L45988 27122
L45950 27122
L45913 27103
L45894 27065
L45894 26972
L45875 26934
" />
<path d="M46044 26691
L46025 26728
L45988 26747
L45650 26747
" />
<path d="M46081 26634
L46081 26334
" />
<path d="M45650 26166
L45650 26128
L45669 26091
L45688 26072
L45725 26053
L45800 26034
L45894 26034
L45969 26053
L46006 26072
L46025 26091
L46044 26128
L46044 26166
L46025 26203
L46006 26222
L45969 26241
L45894 26259
L45800 26259
L45725 26241
L45688 26222
L45669 26203
L45650 26166
" />
<path d="M46044 25659
L46044 25884
" />
<path d="M46044 25772
L45650 25772
L45706 25809
L45744 25847
L45763 25884
" />
<path d="M46044 25528
L45781 25322
" />
<path d="M45781 25528
L46044 25322
" />
<path d="M45650 25097
L45650 25059
L45669 25022
L45688 25003
L45725 24985
L45800 24966
L45894 24966
L45969 24985
L46006 25003
L46025 25022
L46044 25059
L46044 25097
L46025 25134
L46006 25153
L45969 25172
L45894 25191
L45800 25191
L45725 25172
L45688 25153
L45669 25134
L45650 25097
" />
<path d="M45688 24816
L45669 24797
L45650 24760
L45650 24666
L45669 24628
L45688 24610
L45725 24591
L45763 24591
L45819 24610
L46044 24835
L46044 24591
" />
<path d="M48534 27631
L48815 27631
L48871 27649
L48909 27687
L48928 27743
L48928 27781
" />
<path d="M48928 27237
L48928 27462
" />
<path d="M48928 27350
L48534 27350
L48590 27387
L48628 27425
L48646 27462
" />
<path d="M48534 32381
L48815 32381
L48871 32399
L48909 32437
L48928 32493
L48928 32531
" />
<path d="M48571 32212
L48553 32193
L48534 32156
L48534 32062
L48553 32025
L48571 32006
L48609 31987
L48646 31987
L48703 32006
L48928 32231
L48928 31987
" />
<path d="M46104 40408
L46122 40352
L46122 40258
L46104 40221
L46085 40202
L46047 40183
L46010 40183
L45973 40202
L45954 40221
L45935 40258
L45916 40333
L45898 40371
L45879 40389
L45841 40408
L45804 40408
L45766 40389
L45748 40371
L45729 40333
L45729 40239
L45748 40183
" />
<path d="M46104 39846
L46122 39883
L46122 39958
L46104 39996
L46085 40014
L46047 40033
L45935 40033
L45898 40014
L45879 39996
L45860 39958
L45860 39883
L45879 39846
" />
<path d="M46122 39677
L45860 39677
" />
<path d="M45935 39677
L45898 39658
L45879 39640
L45860 39602
L45860 39565
" />
<path d="M46104 39283
L46122 39321
L46122 39396
L46104 39433
L46066 39452
L45916 39452
L45879 39433
L45860 39396
L45860 39321
L45879 39283
L45916 39265
L45954 39265
L45991 39452
" />
<path d="M45860 39133
L46122 39058
L45935 38983
L46122 38908
L45860 38833
" />
<path d="M46160 38777
L46160 38477
" />
<path d="M45729 38440
L45729 38215
" />
<path d="M46122 38327
L45729 38327
" />
<path d="M46104 37934
L46122 37971
L46122 38046
L46104 38083
L46066 38102
L45916 38102
L45879 38083
L45860 38046
L45860 37971
L45879 37934
L45916 37915
L45954 37915
L45991 38102
" />
<path d="M46122 37746
L45860 37746
" />
<path d="M45935 37746
L45898 37727
L45879 37709
L45860 37671
L45860 37634
" />
<path d="M46122 37502
L45860 37502
" />
<path d="M45898 37502
L45879 37484
L45860 37446
L45860 37390
L45879 37352
L45916 37334
L46122 37334
" />
<path d="M45916 37334
L45879 37315
L45860 37277
L45860 37221
L45879 37184
L45916 37165
L46122 37165
" />
<path d="M46122 36977
L45860 36977
" />
<path d="M45729 36977
L45748 36996
L45766 36977
L45748 36959
L45729 36977
L45766 36977
" />
<path d="M45860 36790
L46122 36790
" />
<path d="M45898 36790
L45879 36771
L45860 36734
L45860 36677
L45879 36640
L45916 36621
L46122 36621
" />
<path d="M46122 36265
L45916 36265
L45879 36284
L45860 36321
L45860 36396
L45879 36434
" />
<path d="M46104 36265
L46122 36302
L46122 36396
L46104 36434
L46066 36452
L46029 36452
L45991 36434
L45973 36396
L45973 36302
L45954 36265
" />
<path d="M46122 36021
L46104 36059
L46066 36077
L45729 36077
" />
<path d="M46160 35965
L46160 35665
" />
<path d="M45729 35496
L45729 35459
L45748 35421
L45766 35403
L45804 35384
L45879 35365
L45973 35365
L46047 35384
L46085 35403
L46104 35421
L46122 35459
L46122 35496
L46104 35534
L46085 35553
L46047 35571
L45973 35590
L45879 35590
L45804 35571
L45766 35553
L45748 35534
L45729 35496
" />
<path d="M46122 34990
L46122 35215
" />
<path d="M46122 35103
L45729 35103
L45785 35140
L45823 35178
L45841 35215
" />
<path d="M46122 34859
L45860 34653
" />
<path d="M45860 34859
L46122 34653
" />
<path d="M45729 34428
L45729 34390
L45748 34353
L45766 34334
L45804 34315
L45879 34296
L45973 34296
L46047 34315
L46085 34334
L46104 34353
L46122 34390
L46122 34428
L46104 34465
L46085 34484
L46047 34503
L45973 34521
L45879 34521
L45804 34503
L45766 34484
L45748 34465
L45729 34428
" />
<path d="M45766 34146
L45748 34128
L45729 34090
L45729 33997
L45748 33959
L45766 33940
L45804 33922
L45841 33922
L45898 33940
L46122 34165
L46122 33922
" />
<path d="M48534 37131
L48815 37131
L48871 37149
L48909 37187
L48928 37243
L48928 37281
" />
<path d="M48534 36981
L48534 36737
L48684 36868
L48684 36812
L48703 36775
L48721 36756
L48759 36737
L48853 36737
L48890 36756
L48909 36775
L48928 36812
L48928 36925
L48909 36962
L48890 36981
" />
<path d="M74909 34743
L74928 34687
L74928 34593
L74909 34555
L74890 34537
L74853 34518
L74815 34518
L74778 34537
L74759 34555
L74740 34593
L74721 34668
L74703 34705
L74684 34724
L74646 34743
L74609 34743
L74571 34724
L74553 34705
L74534 34668
L74534 34574
L74553 34518
" />
<path d="M74909 34180
L74928 34218
L74928 34293
L74909 34330
L74890 34349
L74853 34368
L74740 34368
L74703 34349
L74684 34330
L74665 34293
L74665 34218
L74684 34180
" />
<path d="M74928 34012
L74665 34012
" />
<path d="M74740 34012
L74703 33993
L74684 33974
L74665 33937
L74665 33899
" />
<path d="M74909 33618
L74928 33655
L74928 33730
L74909 33768
L74871 33787
L74721 33787
L74684 33768
L74665 33730
L74665 33655
L74684 33618
L74721 33599
L74759 33599
L74796 33787
" />
<path d="M74665 33468
L74928 33393
L74740 33318
L74928 33243
L74665 33168
" />
<path d="M74965 33112
L74965 32812
" />
<path d="M74534 32774
L74534 32549
" />
<path d="M74928 32662
L74534 32662
" />
<path d="M74909 32268
L74928 32306
L74928 32381
L74909 32418
L74871 32437
L74721 32437
L74684 32418
L74665 32381
L74665 32306
L74684 32268
L74721 32249
L74759 32249
L74796 32437
" />
<path d="M74928 32081
L74665 32081
" />
<path d="M74740 32081
L74703 32062
L74684 32043
L74665 32006
L74665 31968
" />
<path d="M74928 31837
L74665 31837
" />
<path d="M74703 31837
L74684 31818
L74665 31781
L74665 31724
L74684 31687
L74721 31668
L74928 31668
" />
<path d="M74721 31668
L74684 31649
L74665 31612
L74665 31556
L74684 31518
L74721 31500
L74928 31500
" />
<path d="M74928 31312
L74665 31312
" />
<path d="M74534 31312
L74553 31331
L74571 31312
L74553 31293
L74534 31312
L74571 31312
" />
<path d="M74665 31125
L74928 31125
" />
<path d="M74703 31125
L74684 31106
L74665 31068
L74665 31012
L74684 30975
L74721 30956
L74928 30956
" />
<path d="M74928 30600
L74721 30600
L74684 30618
L74665 30656
L74665 30731
L74684 30768
" />
<path d="M74909 30600
L74928 30637
L74928 30731
L74909 30768
L74871 30787
L74834 30787
L74796 30768
L74778 30731
L74778 30637
L74759 30600
" />
<path d="M74928 30356
L74909 30393
L74871 30412
L74534 30412
" />
<path d="M74965 30300
L74965 30000
" />
<path d="M74534 29831
L74534 29793
L74553 29756
L74571 29737
L74609 29718
L74684 29700
L74778 29700
L74853 29718
L74890 29737
L74909 29756
L74928 29793
L74928 29831
L74909 29868
L74890 29887
L74853 29906
L74778 29925
L74684 29925
L74609 29906
L74571 29887
L74553 29868
L74534 29831
" />
<path d="M74928 29325
L74928 29550
" />
<path d="M74928 29437
L74534 29437
L74590 29475
L74628 29512
L74646 29550
" />
<path d="M74928 29194
L74665 28987
" />
<path d="M74665 29194
L74928 28987
" />
<path d="M74534 28762
L74534 28725
L74553 28687
L74571 28669
L74609 28650
L74684 28631
L74778 28631
L74853 28650
L74890 28669
L74909 28687
L74928 28725
L74928 28762
L74909 28800
L74890 28819
L74853 28837
L74778 28856
L74684 28856
L74609 28837
L74571 28819
L74553 28800
L74534 28762
" />
<path d="M74571 28481
L74553 28462
L74534 28425
L74534 28331
L74553 28294
L74571 28275
L74609 28256
L74646 28256
L74703 28275
L74928 28500
L74928 28256
" />
<path d="M72534 31631
L72815 31631
L72871 31649
L72909 31687
L72928 31743
L72928 31781
" />
<path d="M72665 31275
L72928 31275
" />
<path d="M72515 31368
L72796 31462
L72796 31218
" />
<path d="M52515 35245
L52290 35245
" />
<path d="M52403 35245
L52403 34851
L52365 34907
L52328 34945
L52290 34963
" />
<path d="M52759 34851
L52796 34851
L52834 34870
L52853 34888
L52871 34926
L52890 35001
L52890 35095
L52871 35170
L52853 35207
L52834 35226
L52796 35245
L52759 35245
L52721 35226
L52703 35207
L52684 35170
L52665 35095
L52665 35001
L52684 34926
L52703 34888
L52721 34870
L52759 34851
" />
<path d="M53059 35245
L53059 34851
" />
<path d="M53096 35095
L53209 35245
" />
<path d="M53209 34982
L53059 35132
" />
<path d="M52684 36178
L52553 35990
" />
<path d="M52459 36178
L52459 35784
L52609 35784
L52646 35803
L52665 35821
L52684 35859
L52684 35915
L52665 35953
L52646 35971
L52609 35990
L52459 35990
" />
<path d="M53059 36178
L52834 36178
" />
<path d="M52946 36178
L52946 35784
L52909 35840
L52871 35878
L52834 35896
" />
<path d="M56015 36995
L55790 36995
" />
<path d="M55903 36995
L55903 36601
L55865 36657
L55828 36695
L55790 36713
" />
<path d="M56259 36601
L56296 36601
L56334 36620
L56353 36638
L56371 36676
L56390 36751
L56390 36845
L56371 36920
L56353 36957
L56334 36976
L56296 36995
L56259 36995
L56221 36976
L56203 36957
L56184 36920
L56165 36845
L56165 36751
L56184 36676
L56203 36638
L56221 36620
L56259 36601
" />
<path d="M56559 36995
L56559 36601
" />
<path d="M56596 36845
L56709 36995
" />
<path d="M56709 36732
L56559 36882
" />
<path d="M56184 37928
L56053 37740
" />
<path d="M55959 37928
L55959 37534
L56109 37534
L56146 37553
L56165 37571
L56184 37609
L56184 37665
L56165 37703
L56146 37721
L56109 37740
L55959 37740
" />
<path d="M56334 37571
L56353 37553
L56390 37534
L56484 37534
L56521 37553
L56540 37571
L56559 37609
L56559 37646
L56540 37703
L56315 37928
L56559 37928
" />
<path d="M61745 33984
L61745 34209
" />
<path d="M61745 34096
L61351 34096
L61407 34134
L61445 34171
L61463 34209
" />
<path d="M61351 33740
L61351 33703
L61370 33665
L61388 33646
L61426 33628
L61501 33609
L61595 33609
L61670 33628
L61707 33646
L61726 33665
L61745 33703
L61745 33740
L61726 33778
L61707 33796
L61670 33815
L61595 33834
L61501 33834
L61426 33815
L61388 33796
L61370 33778
L61351 33740
" />
<path d="M61745 33440
L61351 33440
" />
<path d="M61595 33403
L61745 33290
" />
<path d="M61482 33290
L61632 33440
" />
<path d="M62678 33815
L62490 33946
" />
<path d="M62678 34040
L62284 34040
L62284 33890
L62303 33853
L62321 33834
L62359 33815
L62415 33815
L62453 33834
L62471 33853
L62490 33890
L62490 34040
" />
<path d="M62284 33684
L62284 33440
L62434 33571
L62434 33515
L62453 33478
L62471 33459
L62509 33440
L62603 33440
L62640 33459
L62659 33478
L62678 33515
L62678 33628
L62659 33665
L62640 33684
" />
<path d="M63495 30984
L63495 31209
" />
<path d="M63495 31096
L63101 31096
L63157 31134
L63195 31171
L63213 31209
" />
<path d="M63101 30740
L63101 30703
L63120 30665
L63138 30646
L63176 30628
L63251 30609
L63345 30609
L63420 30628
L63457 30646
L63476 30665
L63495 30703
L63495 30740
L63476 30778
L63457 30796
L63420 30815
L63345 30834
L63251 30834
L63176 30815
L63138 30796
L63120 30778
L63101 30740
" />
<path d="M63495 30440
L63101 30440
" />
<path d="M63345 30403
L63495 30290
" />
<path d="M63232 30290
L63382 30440
" />
<path d="M64428 30815
L64240 30946
" />
<path d="M64428 31040
L64034 31040
L64034 30890
L64053 30853
L64071 30834
L64109 30815
L64165 30815
L64203 30834
L64221 30853
L64240 30890
L64240 31040
" />
<path d="M64034 30459
L64034 30646
L64221 30665
L64203 30646
L64184 30609
L64184 30515
L64203 30478
L64221 30459
L64259 30440
L64353 30440
L64390 30459
L64409 30478
L64428 30515
L64428 30609
L64409 30646
L64390 30665
" />
<path d="M65622 40020
L65622 39626
L65753 39908
L65884 39626
L65884 40020
" />
<path d="M66128 40020
L66091 40001
L66072 39983
L66053 39945
L66053 39833
L66072 39795
L66091 39776
L66128 39758
L66184 39758
L66222 39776
L66241 39795
L66259 39833
L66259 39945
L66241 39983
L66222 40001
L66184 40020
L66128 40020
" />
<path d="M66597 39758
L66597 40020
" />
<path d="M66428 39758
L66428 39964
L66447 40001
L66484 40020
L66541 40020
L66578 40001
L66597 39983
" />
<path d="M66784 39758
L66784 40020
" />
<path d="M66784 39795
L66803 39776
L66841 39758
L66897 39758
L66934 39776
L66953 39814
L66953 40020
" />
<path d="M67084 39758
L67234 39758
" />
<path d="M67140 39626
L67140 39964
L67159 40001
L67197 40020
L67234 40020
" />
<path d="M67365 40020
L67365 39758
" />
<path d="M67365 39626
L67347 39645
L67365 39664
L67384 39645
L67365 39626
L67365 39664
" />
<path d="M67553 39758
L67553 40020
" />
<path d="M67553 39795
L67572 39776
L67609 39758
L67665 39758
L67703 39776
L67722 39814
L67722 40020
" />
<path d="M68078 39758
L68078 40076
L68059 40114
L68040 40133
L68003 40151
L67947 40151
L67909 40133
" />
<path d="M68078 40001
L68040 40020
L67965 40020
L67928 40001
L67909 39983
L67890 39945
L67890 39833
L67909 39795
L67928 39776
L67965 39758
L68040 39758
L68078 39776
" />
<path d="M68265 40020
L68265 39626
" />
<path d="M68265 39814
L68490 39814
" />
<path d="M68490 40020
L68490 39626
" />
<path d="M68734 40020
L68697 40001
L68678 39983
L68659 39945
L68659 39833
L68678 39795
L68697 39776
L68734 39758
L68790 39758
L68828 39776
L68847 39795
L68865 39833
L68865 39945
L68847 39983
L68828 40001
L68790 40020
L68734 40020
" />
<path d="M69090 40020
L69053 40001
L69034 39964
L69034 39626
" />
<path d="M69390 40001
L69353 40020
L69278 40020
L69240 40001
L69221 39964
L69221 39814
L69240 39776
L69278 39758
L69353 39758
L69390 39776
L69409 39814
L69409 39851
L69221 39889
" />
<path d="M69484 40058
L69784 40058
" />
<path d="M69859 39664
L69878 39645
L69915 39626
L70009 39626
L70046 39645
L70065 39664
L70084 39701
L70084 39739
L70065 39795
L69840 40020
L70084 40020
" />
<path d="M70253 39983
L70271 40001
L70253 40020
L70234 40001
L70253 39983
L70253 40020
" />
<path d="M70421 39664
L70440 39645
L70478 39626
L70571 39626
L70609 39645
L70628 39664
L70646 39701
L70646 39739
L70628 39795
L70403 40020
L70646 40020
" />
<path d="M70815 40020
L70815 39758
" />
<path d="M70815 39795
L70834 39776
L70871 39758
L70928 39758
L70965 39776
L70984 39814
L70984 40020
" />
<path d="M70984 39814
L71002 39776
L71040 39758
L71096 39758
L71134 39776
L71152 39814
L71152 40020
" />
<path d="M71340 40020
L71340 39758
" />
<path d="M71340 39795
L71359 39776
L71396 39758
L71452 39758
L71490 39776
L71509 39814
L71509 40020
" />
<path d="M71509 39814
L71527 39776
L71565 39758
L71621 39758
L71659 39776
L71677 39814
L71677 40020
" />
<path d="M71771 40058
L72071 40058
" />
<path d="M72165 40020
L72165 39626
L72296 39908
L72427 39626
L72427 40020
" />
<path d="M72596 39664
L72615 39645
L72652 39626
L72746 39626
L72784 39645
L72802 39664
L72821 39701
L72821 39739
L72802 39795
L72577 40020
L72821 40020
" />
<path d="M48102 23327
L48102 22934
L48233 23215
L48365 22934
L48365 23327
" />
<path d="M48608 23327
L48571 23308
L48552 23290
L48533 23252
L48533 23140
L48552 23102
L48571 23083
L48608 23065
L48665 23065
L48702 23083
L48721 23102
L48740 23140
L48740 23252
L48721 23290
L48702 23308
L48665 23327
L48608 23327
" />
<path d="M49077 23065
L49077 23327
" />
<path d="M48908 23065
L48908 23271
L48927 23308
L48965 23327
L49021 23327
L49058 23308
L49077 23290
" />
<path d="M49265 23065
L49265 23327
" />
<path d="M49265 23102
L49283 23083
L49321 23065
L49377 23065
L49415 23083
L49433 23121
L49433 23327
" />
<path d="M49565 23065
L49715 23065
" />
<path d="M49621 22934
L49621 23271
L49640 23308
L49677 23327
L49715 23327
" />
<path d="M49846 23327
L49846 23065
" />
<path d="M49846 22934
L49827 22952
L49846 22971
L49865 22952
L49846 22934
L49846 22971
" />
<path d="M50033 23065
L50033 23327
" />
<path d="M50033 23102
L50052 23083
L50089 23065
L50146 23065
L50183 23083
L50202 23121
L50202 23327
" />
<path d="M50558 23065
L50558 23383
L50539 23421
L50521 23440
L50483 23458
L50427 23458
L50389 23440
" />
<path d="M50558 23308
L50521 23327
L50446 23327
L50408 23308
L50389 23290
L50371 23252
L50371 23140
L50389 23102
L50408 23083
L50446 23065
L50521 23065
L50558 23083
" />
<path d="M50746 23327
L50746 22934
" />
<path d="M50746 23121
L50971 23121
" />
<path d="M50971 23327
L50971 22934
" />
<path d="M51214 23327
L51177 23308
L51158 23290
L51139 23252
L51139 23140
L51158 23102
L51177 23083
L51214 23065
L51271 23065
L51308 23083
L51327 23102
L51346 23140
L51346 23252
L51327 23290
L51308 23308
L51271 23327
L51214 23327
" />
<path d="M51571 23327
L51533 23308
L51514 23271
L51514 22934
" />
<path d="M51871 23308
L51833 23327
L51758 23327
L51721 23308
L51702 23271
L51702 23121
L51721 23083
L51758 23065
L51833 23065
L51871 23083
L51889 23121
L51889 23158
L51702 23196
" />
<path d="M51964 23365
L52264 23365
" />
<path d="M52339 22971
L52358 22952
L52395 22934
L52489 22934
L52527 22952
L52545 22971
L52564 23008
L52564 23046
L52545 23102
L52320 23327
L52564 23327
" />
<path d="M52733 23290
L52752 23308
L52733 23327
L52714 23308
L52733 23290
L52733 23327
" />
<path d="M52902 22971
L52920 22952
L52958 22934
L53052 22934
L53089 22952
L53108 22971
L53127 23008
L53127 23046
L53108 23102
L52883 23327
L53127 23327
" />
<path d="M53295 23327
L53295 23065
" />
<path d="M53295 23102
L53314 23083
L53352 23065
L53408 23065
L53445 23083
L53464 23121
L53464 23327
" />
<path d="M53464 23121
L53483 23083
L53520 23065
L53577 23065
L53614 23083
L53633 23121
L53633 23327
" />
<path d="M53820 23327
L53820 23065
" />
<path d="M53820 23102
L53839 23083
L53877 23065
L53933 23065
L53970 23083
L53989 23121
L53989 23327
" />
<path d="M53989 23121
L54008 23083
L54045 23065
L54101 23065
L54139 23083
L54158 23121
L54158 23327
" />
<path d="M54251 23365
L54551 23365
" />
<path d="M54645 23327
L54645 22934
L54776 23215
L54908 22934
L54908 23327
" />
<path d="M55076 22971
L55095 22952
L55133 22934
L55226 22934
L55264 22952
L55283 22971
L55301 23008
L55301 23046
L55283 23102
L55058 23327
L55301 23327
" />
</g>
<g style="fill:#000000; fill-opacity:0.0; 
stroke:#000000; stroke-width:59.0551; stroke-opacity:1; 
stroke-linecap:round; stroke-linejoin:round;">
</g>
<g style="fill:#000084; fill-opacity:0.0; 
stroke:#000084; stroke-width:59.0551; stroke-opacity:1; 
stroke-linecap:round; stroke-linejoin:round;">
<circle cx="74173.2" cy="39960.6" r="866.142" /> 
<circle cx="46889.8" cy="23267.7" r="866.142" /> 
</g>
<g style="fill:#000000; fill-opacity:0.0; 
stroke:#000000; stroke-width:59.0551; stroke-opacity:1; 
stroke-linecap:round; stroke-linejoin:round;">
</g>
<g style="fill:#C2C200; fill-opacity:0.0; 
stroke:#C2C200; stroke-width:59.0551; stroke-opacity:1; 
stroke-linecap:round; stroke-linejoin:round;">
<path d="M75787 21732
L75708 21732
" />
<path d="M75787 23622
L75787 21732
" />
<path d="M45275 21732
L75748 21732
" />
<path d="M45275 23622
L45275 21732
" />
<path d="M45275 41338
L75787 41338
" />
<path d="M45275 23622
L45275 41338
" />
<path d="M75787 41338
L75787 23622
" />
</g> 
</svg>
